<?xml version="1.0" standalone="no"?>
<!DOCTYPE svg PUBLIC "-//W3C//DTD SVG 20010904//EN"
 "http://www.w3.org/TR/2001/REC-SVG-20010904/DTD/svg10.dtd">
<svg version="1.0" xmlns="http://www.w3.org/2000/svg"
 width="700.000000pt" height="700.000000pt" viewBox="0 0 700.000000 700.000000"
 preserveAspectRatio="xMidYMid meet">
<metadata>
Created by potrace 1.14, written by Peter Selinger 2001-2017
</metadata>
<g transform="translate(0.000000,700.000000) scale(0.100000,-0.100000)"
fill="#000000" stroke="none">
<path d="M4453 6145 c-74 -17 -155 -60 -194 -102 -69 -74 -89 -90 -117 -96
-45 -9 -114 -67 -149 -127 -33 -55 -43 -118 -27 -177 8 -28 34 -30 34 -4 0 26
17 36 24 14 5 -15 19 -18 98 -18 l93 -1 58 -69 c75 -89 116 -170 122 -240 l5
-54 -67 -44 c-110 -72 -173 -145 -208 -242 -10 -27 -23 -56 -29 -64 -16 -21
-107 -77 -226 -139 -125 -66 -252 -166 -456 -357 -50 -47 -155 -182 -226 -291
-80 -122 -188 -300 -188 -309 0 -4 -8 -19 -19 -33 -33 -48 -152 -272 -293
-554 -76 -153 -147 -283 -158 -291 -10 -7 -52 -44 -92 -83 -41 -38 -121 -112
-178 -164 -57 -52 -108 -100 -114 -105 -6 -6 -65 -60 -131 -121 -66 -61 -140
-129 -165 -152 -25 -23 -54 -45 -65 -48 -39 -13 -126 -88 -156 -134 -18 -27
-56 -65 -87 -87 -97 -66 -207 -156 -276 -228 -78 -81 -128 -214 -92 -244 22
-18 49 -9 162 55 111 63 303 160 409 206 39 17 84 36 100 44 73 32 210 84 223
84 7 0 12 -4 10 -8 -1 -4 -69 -140 -150 -302 -122 -244 -165 -321 -252 -444
-58 -81 -103 -152 -100 -157 3 -5 12 -9 20 -9 11 0 13 -6 8 -22 -33 -100 -33
-148 0 -148 8 0 16 -6 19 -14 5 -12 17 -11 78 5 l71 19 32 -23 c28 -20 43 -22
146 -22 106 1 120 3 175 30 33 16 79 41 103 56 41 26 46 26 76 14 73 -31 149
21 251 171 33 49 197 289 363 534 302 442 332 487 462 692 74 115 112 151 135
127 7 -8 20 -40 29 -72 11 -36 30 -72 50 -95 31 -33 37 -36 63 -27 34 12 61
64 70 134 4 35 12 55 24 61 18 10 96 17 103 9 2 -2 54 -118 115 -257 l112
-252 -5 -68 c-6 -79 -15 -237 -21 -377 -4 -95 -3 -102 23 -140 48 -72 96 -135
102 -135 3 0 4 103 2 229 -4 219 -3 230 16 249 11 11 26 19 34 18 70 -14 257
-95 306 -132 32 -25 92 -135 92 -169 0 -8 4 -16 9 -19 15 -10 4 63 -24 159
-36 123 -61 159 -128 186 -46 18 -87 48 -87 63 0 40 185 55 249 21 45 -23 69
-52 77 -93 9 -48 23 -20 18 37 -13 160 -52 188 -245 176 -138 -9 -145 -5 -154
77 -14 147 -15 147 19 194 152 216 290 423 312 466 25 49 93 170 175 311 18
31 37 57 42 57 4 0 6 -4 3 -8 -8 -14 14 -86 30 -98 33 -26 193 39 305 124 180
138 447 513 532 749 64 177 87 350 64 478 -19 101 -92 200 -174 236 -44 19
-45 22 -46 89 0 40 10 101 31 176 17 64 19 110 8 159 -3 12 -30 49 -60 84 -31
35 -61 80 -68 100 -12 35 -14 135 -8 311 3 72 -1 95 -23 152 -65 169 -200 310
-374 393 -74 35 -259 100 -310 109 -15 3 -53 10 -83 16 -68 13 -198 11 -267
-5z"/>
</g>
</svg>
